<svg width="40" height="40" viewBox="0 0 40 40" fill="none" xmlns="http://www.w3.org/2000/svg">
<path d="M16.6667 30V26.6667H19.25L23.625 21.6667L19.25 16.6667H16.5L13.8333 31C13.6111 32.25 13.0972 33.2294 12.2917 33.9383C11.4861 34.6472 10.4583 35.0011 9.20833 35C7.95833 35 6.94444 34.6667 6.16667 34C5.38889 33.3333 5 32.4444 5 31.3333C5 30.4444 5.23611 29.7289 5.70833 29.1867C6.18056 28.6444 6.77778 28.3739 7.5 28.375C8.19444 28.375 8.785 28.6111 9.27167 29.0833C9.75833 29.5556 10.0011 30.125 10 30.7917C10 30.9306 9.99278 31.0556 9.97833 31.1667C9.96389 31.2778 9.94333 31.4028 9.91667 31.5417C10.0556 31.5139 10.1739 31.4372 10.2717 31.3117C10.3694 31.1861 10.4456 31.0128 10.5 30.7917L13.0833 16.6667H8.33333V13.3333H13.7083L14.5833 8.58333C14.7778 7.52778 15.2989 6.66667 16.1467 6C16.9944 5.33333 18.0011 5 19.1667 5C20.3889 5 21.3889 5.36111 22.1667 6.08333C22.9444 6.80556 23.3333 7.70833 23.3333 8.79167C23.3333 9.625 23.0972 10.3128 22.625 10.855C22.1528 11.3972 21.5556 11.6678 20.8333 11.6667C20.1389 11.6667 19.5483 11.4306 19.0617 10.9583C18.575 10.4861 18.3322 9.90278 18.3333 9.20833C18.3333 9.06944 18.3406 8.94444 18.355 8.83333C18.3694 8.72222 18.39 8.59722 18.4167 8.45833C18.25 8.51389 18.125 8.59722 18.0417 8.70833C17.9583 8.81944 17.8889 8.98611 17.8333 9.20833L17.125 13.3333H25V16.6667H23.6667L25.8333 19.125L28 16.6667H26.6667V13.3333H35V16.6667H32.4167L28.0417 21.6667L32.4167 26.6667H35V30H26.6667V26.6667H28L25.8333 24.1667L23.6667 26.6667H25V30H16.6667Z" fill="black"/>
</svg>
