<svg width="69" height="77" viewBox="0 0 69 77" fill="none" xmlns="http://www.w3.org/2000/svg">
<path d="M40.0849 54.8125C45.6861 54.8125 51.1615 53.218 55.8187 50.2306C60.4759 47.2432 64.1058 42.9971 66.2492 38.0292C68.3927 33.0613 68.9535 27.5948 67.8608 22.321C66.7681 17.0471 64.0708 12.2028 60.1102 8.40054C56.1496 4.5983 51.1035 2.00894 45.6099 0.959903C40.1164 -0.089133 34.4222 0.44927 29.2473 2.50703C24.0725 4.56479 19.6496 8.04948 16.5377 12.5204C13.4259 16.9914 11.7649 22.2478 11.7649 27.625C11.7734 34.8331 14.7598 41.7436 20.069 46.8405C25.3782 51.9374 32.5766 54.8044 40.0849 54.8125ZM40.0849 5.875C44.5659 5.875 48.9462 7.15062 52.6719 9.54054C56.3977 11.9305 59.3016 15.3273 61.0164 19.3016C62.7311 23.2759 63.1798 27.6491 62.3056 31.8682C61.4314 36.0873 59.2737 39.9628 56.1052 43.0046C52.9367 46.0464 48.8998 48.1179 44.5049 48.9571C40.1101 49.7963 35.5547 49.3656 31.4149 47.7194C27.275 46.0732 23.7366 43.2854 21.2472 39.7087C18.7577 36.1319 17.4289 31.9267 17.4289 27.625C17.4355 21.8585 19.8246 16.3299 24.072 12.2524C28.3194 8.17483 34.0782 5.8813 40.0849 5.875ZM67.6155 51.2441C67.8736 51.5017 68.0762 51.8057 68.2118 52.1385C68.3473 52.4713 68.4132 52.8266 68.4057 53.1839C68.3981 53.5412 68.3172 53.8935 68.1677 54.2208C68.0181 54.5481 67.8028 54.8439 67.5341 55.0912C60.8695 61.2609 52.1534 64.979 42.9169 65.5923V71.125H51.4129C52.164 71.125 52.8844 71.4114 53.4155 71.9213C53.9466 72.4312 54.245 73.1227 54.245 73.8438C54.245 74.5648 53.9466 75.2563 53.4155 75.7662C52.8844 76.2761 52.164 76.5625 51.4129 76.5625H28.7569C28.0058 76.5625 27.2855 76.2761 26.7544 75.7662C26.2233 75.2563 25.9249 74.5648 25.9249 73.8438C25.9249 73.1227 26.2233 72.4312 26.7544 71.9213C27.2855 71.4114 28.0058 71.125 28.7569 71.125H37.2529V65.589C29.7418 65.0725 22.5392 62.5131 16.4878 58.2104C10.4364 53.9077 5.78657 48.0395 3.08229 41.2925C0.378014 34.5455 -0.268854 27.1986 1.21737 20.1116C2.7036 13.0245 6.26145 6.49031 11.4747 1.27352C11.7306 1.00955 12.0386 0.797097 12.3808 0.648515C12.7231 0.499933 13.0927 0.418194 13.4681 0.408057C13.8436 0.39792 14.2174 0.459588 14.5678 0.589471C14.9182 0.719354 15.2382 0.914857 15.5092 1.1646C15.7801 1.41434 15.9966 1.71332 16.146 2.04415C16.2954 2.37498 16.3748 2.73105 16.3795 3.09161C16.3843 3.45217 16.3142 3.81003 16.1735 4.14436C16.0327 4.47869 15.8241 4.7828 15.5598 5.03899C9.38635 11.1952 5.97529 19.4309 6.05985 27.9758C6.1444 36.5208 9.71783 44.6928 16.012 50.7353C22.3062 56.7777 30.8186 60.2083 39.7195 60.2894C48.6204 60.3706 57.1992 57.096 63.6118 51.1694C64.1531 50.6697 64.879 50.3969 65.6298 50.4109C66.3806 50.4249 67.0949 50.7246 67.6155 51.2441Z" fill="black"/>
</svg>
