<svg width="132" height="88" viewBox="0 0 132 88" fill="none" xmlns="http://www.w3.org/2000/svg">
<path fill-rule="evenodd" clip-rule="evenodd" d="M93.2516 10.2367C68.628 -10.766 31.3214 2.23534 23.8372 33.8866H2.87083C-0.956942 33.8866 -0.956942 39.8282 2.87083 39.8282H26.1227C27.6649 39.8282 28.8646 38.6519 29.0367 37.181C30.6929 28.2387 35.3205 20.4145 41.8336 14.8256C63.7145 -3.88263 97.2507 8.70684 102.392 37.3574C103.078 41.24 108.791 40.181 108.105 36.2984C106.22 25.8852 100.85 16.7665 93.2516 10.2367Z" fill="white"/>
<path fill-rule="evenodd" clip-rule="evenodd" d="M82.0535 60.4775C96.3935 45.77 86.1672 20.532 65.9999 20.532C53.4308 20.532 43.2619 31.0042 43.2619 43.9464C43.2619 64.7136 67.7708 75.2441 82.0535 60.4775Z" fill="white"/>
<path fill-rule="evenodd" clip-rule="evenodd" d="M108.163 54.065C100.679 85.6572 63.3719 98.6585 38.7483 77.6558C31.1501 71.126 25.7801 62.0073 23.8945 51.5941C23.2094 47.7116 28.922 46.6525 29.6079 50.5351C34.7493 79.1857 68.2855 91.7752 90.1663 73.0677C96.6795 67.4788 101.307 59.6538 102.963 50.7115C103.135 49.2414 104.335 48.0643 105.877 48.0643H129.129C132.957 48.0643 132.957 54.065 129.129 54.065H108.163Z" fill="white"/>
</svg>
