<svg width="87" height="87" viewBox="0 0 87 87" fill="none" xmlns="http://www.w3.org/2000/svg">
<path d="M50.8221 31.7C50.8221 31.161 51.0173 30.6064 51.4077 30.0363C51.7982 29.4662 52.2306 29.0925 52.7049 28.9152C54.4416 28.3164 56.1783 27.8672 57.9151 27.5678C59.6518 27.2683 61.4795 27.1186 63.3983 27.1186C64.5961 27.1186 65.7794 27.1941 66.9484 27.345C68.1174 27.4959 69.2697 27.6899 70.4051 27.9271C70.9441 28.0469 71.4088 28.3463 71.7993 28.8254C72.1897 29.3045 72.3838 29.8435 72.3814 30.4424C72.3814 31.4604 72.052 32.209 71.3932 32.6881C70.7345 33.1672 69.8961 33.287 68.878 33.0474C68.0396 32.8678 67.1568 32.7324 66.2298 32.6414C65.3027 32.5504 64.3589 32.5061 63.3983 32.5085C61.8413 32.5085 60.3141 32.6582 58.817 32.9576C57.3198 33.257 55.8825 33.6463 54.5051 34.1254C53.4271 34.5446 52.5444 34.5147 51.8569 34.0356C51.1694 33.5565 50.8244 32.7779 50.8221 31.7ZM50.8221 51.4627C50.8221 50.9237 51.0173 50.3691 51.4077 49.799C51.7982 49.2289 52.2318 48.8552 52.7085 48.6779C54.4452 48.0791 56.1819 47.6299 57.9187 47.3305C59.6554 47.031 61.4819 46.8813 63.3983 46.8813C64.5961 46.8813 65.7794 46.9568 66.9484 47.1077C68.1174 47.2586 69.2697 47.4526 70.4051 47.6898C70.9441 47.8096 71.4088 48.109 71.7993 48.5881C72.1897 49.0672 72.3838 49.6062 72.3814 50.2051C72.3814 51.2231 72.052 51.9717 71.3932 52.4508C70.7345 52.9299 69.8961 53.0497 68.878 52.8101C68.0396 52.6305 67.1568 52.4951 66.2298 52.4041C65.3027 52.3131 64.3589 52.2688 63.3983 52.2712C61.8413 52.2712 60.3141 52.4065 58.817 52.6772C57.3198 52.9479 55.8825 53.3216 54.5051 53.7983C53.4271 54.2175 52.5432 54.2019 51.8533 53.7516C51.1634 53.3012 50.8197 52.5394 50.8221 51.4663V51.4627ZM50.8221 41.5813C50.8221 41.0423 51.0173 40.4878 51.4077 39.9177C51.7982 39.3475 52.2318 38.9738 52.7085 38.7966C54.4452 38.1977 56.1819 37.7486 57.9187 37.4491C59.6554 37.1497 61.4819 37 63.3983 37C64.5961 37 65.7794 37.0754 66.9484 37.2263C68.1174 37.3773 69.2697 37.5713 70.4051 37.8085C70.9441 37.9282 71.4088 38.2277 71.7993 38.7068C72.1897 39.1859 72.3838 39.7248 72.3814 40.3237C72.3814 41.3418 72.052 42.0904 71.3932 42.5695C70.7345 43.0486 69.8961 43.1683 68.878 42.9288C68.0396 42.7491 67.1568 42.6138 66.2298 42.5228C65.3027 42.4317 64.3589 42.3874 63.3983 42.3898C61.8413 42.3898 60.3141 42.5395 58.817 42.839C57.3198 43.1384 55.8825 43.5277 54.5051 44.0068C53.4271 44.426 52.5444 44.396 51.8569 43.9169C51.1694 43.4378 50.8244 42.6593 50.8221 41.5813ZM23.8729 57.661C26.6876 57.661 29.428 57.976 32.0942 58.606C34.7603 59.236 37.4098 60.1786 40.0424 61.4339V26.0407C37.587 24.6034 34.9819 23.5254 32.2271 22.8068C29.4723 22.0881 26.6876 21.7288 23.8729 21.7288C21.717 21.7288 19.5754 21.9384 17.4482 22.3576C15.321 22.7768 13.2705 23.4056 11.2966 24.244V59.8169C13.3927 59.0983 15.4743 58.5593 17.5416 58.2C19.6089 57.8406 21.7194 57.661 23.8729 57.661ZM47.2288 61.4339C49.8639 60.1762 52.5133 59.2324 55.177 58.6024C57.8408 57.9724 60.5812 57.6586 63.3983 57.661C65.5543 57.661 67.6659 57.8406 69.7332 58.2C71.8005 58.5593 73.881 59.0983 75.9746 59.8169V24.244C73.9983 23.4056 71.9466 22.7768 69.8194 22.3576C67.6922 21.9384 65.5519 21.7288 63.3983 21.7288C60.5836 21.7288 57.7989 22.0881 55.0441 22.8068C52.2893 23.5254 49.6842 24.6034 47.2288 26.0407V61.4339ZM43.6356 70.1474C42.7972 70.1474 42.0031 70.042 41.2533 69.8312C40.5035 69.6204 39.8004 69.3365 39.1441 68.9796C36.8085 67.6022 34.3531 66.5698 31.778 65.8823C29.2028 65.1948 26.5678 64.8498 23.8729 64.8474C21.3576 64.8474 18.8867 65.1768 16.4601 65.8356C14.0334 66.4943 11.7134 67.4226 9.5 68.6203C8.24237 69.2791 7.03026 69.2491 5.86366 68.5305C4.69706 67.8118 4.11256 66.7638 4.11017 65.3864V22.0881C4.11017 21.4294 4.27546 20.8005 4.60603 20.2017C4.93661 19.6028 5.43008 19.1537 6.08644 18.8542C8.84124 17.4169 11.7158 16.339 14.7102 15.6203C17.7045 14.9017 20.7588 14.5424 23.8729 14.5424C27.3463 14.5424 30.7455 14.9915 34.0705 15.8898C37.3954 16.7881 40.5838 18.1356 43.6356 19.9322C46.6898 18.1356 49.8794 16.7881 53.2044 15.8898C56.5293 14.9915 59.9273 14.5424 63.3983 14.5424C66.5125 14.5424 69.5667 14.9017 72.561 15.6203C75.5554 16.339 78.43 17.4169 81.1848 18.8542C81.8435 19.1537 82.3382 19.6028 82.6688 20.2017C82.9994 20.8005 83.1634 21.4294 83.161 22.0881V65.3864C83.161 66.7638 82.5777 67.8118 81.4111 68.5305C80.2445 69.2491 79.0312 69.2791 77.7712 68.6203C75.5554 67.4226 73.2354 66.4943 70.8111 65.8356C68.3869 65.1768 65.916 64.8474 63.3983 64.8474C60.7034 64.8474 58.0684 65.1924 55.4932 65.8823C52.9181 66.5722 50.4627 67.6046 48.1271 68.9796C47.4684 69.3389 46.7641 69.624 46.0143 69.8348C45.2645 70.0456 44.4716 70.1498 43.6356 70.1474Z" fill="black"/>
</svg>
