<svg width="92" height="41" viewBox="0 0 92 41" fill="none" xmlns="http://www.w3.org/2000/svg">
<path d="M6.59633 39.8737L1.53306 40.3947C1.53306 39.8125 1.53349 37.5974 1.53284 34.2574L5.93912 34.8677V34.1045H1.53273C1.53241 32.441 1.53187 30.506 1.5309 28.3604L6.13354 28.8814L6.12435 28.2076H0.626827L0 28.2077L0.626827 29.179V39.5765L0 40.5478H6.59601C6.59601 40.4982 6.59925 39.9223 6.59633 39.8737Z" fill="white"/>
<path d="M11.9975 36.5576C11.7559 36.301 11.4266 36.0494 10.9446 35.7511H10.9464C10.921 35.7354 10.897 35.7201 10.8708 35.7041C10.7662 35.6366 10.6599 35.569 10.5516 35.5013C10.4047 35.4097 10.2563 35.3211 10.1252 35.2428C9.92419 35.1229 9.69625 34.9869 9.49729 34.8539C9.21486 34.6479 8.97514 34.44 8.78472 34.2357C8.43536 33.8608 8.16546 33.4881 8.09507 33.0963C8.07615 32.9901 8.06696 32.8312 8.06696 32.7345C8.06696 31.7593 8.93772 30.8874 10.1835 30.8874C10.3289 30.8874 10.4698 30.8965 10.6065 30.9145C10.8916 30.9518 11.1638 31.0608 11.4079 31.2195L12.7999 32.1243L12.6061 30.9167L10.6986 30.7585C10.5185 30.7452 10.3301 30.7386 10.133 30.7386C8.61085 30.7386 7.4184 31.7192 7.4184 32.9709C7.4184 33.7224 7.70916 34.3497 8.33371 34.9445C8.57527 35.2011 8.90453 35.4528 9.38657 35.7511H9.38473C9.41014 35.7667 9.43415 35.7821 9.46031 35.7981C9.56498 35.8656 9.67117 35.9332 9.77951 36.0008C9.92635 36.0925 10.0748 36.1811 10.2059 36.2593C10.4069 36.3793 10.6348 36.5152 10.8338 36.6483C11.1162 36.8542 11.3559 37.0622 11.5463 37.2665C11.8957 37.6413 12.1656 38.0141 12.236 38.4059C12.2549 38.512 12.2641 38.671 12.2641 38.7676C12.2641 39.7428 11.3933 40.6148 10.1476 40.6148C10.052 40.6148 9.95846 40.6109 9.86677 40.6031C9.51232 40.5729 9.17193 40.4444 8.86971 40.248L7.53117 39.378L7.72494 40.5856L9.63245 40.7438C9.8126 40.7571 10.001 40.7637 10.1981 40.7637C11.7202 40.7637 12.9127 39.7831 12.9127 38.5313C12.9128 37.7798 12.622 37.1525 11.9975 36.5576Z" fill="white"/>
<path d="M18.3872 40.6413C16.2038 40.6413 14.8312 38.4519 14.8312 35.7511C14.8312 33.0503 16.2037 30.8609 18.3872 30.8609C20.2857 30.8609 21.3578 32.5367 21.9307 34.482L22.5952 34.1506C22.0035 32.1675 20.3438 30.7386 18.3872 30.7386C15.9347 30.7386 13.9465 32.9829 13.9465 35.7511C13.9465 38.5192 15.9348 40.7634 18.3872 40.7634C20.3437 40.7634 22.0033 39.3347 22.5952 37.3514L22.3737 37.2308C21.7968 39.1765 20.2712 40.6413 18.3872 40.6413Z" fill="white"/>
<path d="M28.0388 30.7386C25.5863 30.7386 23.5981 32.9828 23.5981 35.751C23.5981 38.5191 25.5864 40.7634 28.0388 40.7634C30.4914 40.7634 32.4794 38.5191 32.4794 35.751C32.4794 32.9828 30.4914 30.7386 28.0388 30.7386ZM29.1607 40.4766C27.0807 41.1057 25.2237 39.3996 24.6041 36.7898C23.9846 34.18 24.8372 31.6544 26.9171 31.0253C28.9971 30.3962 30.854 32.1023 31.4735 34.712C32.093 37.322 31.2405 39.8476 29.1607 40.4766Z" fill="white"/>
<path d="M34.9949 39.7065V27.6699H33.5153L34.1421 28.6412V39.6939L33.5153 40.6652H35.6135L34.9949 39.7065Z" fill="white"/>
<path d="M43.8109 40.6652L43.1982 39.7157V33.4446C43.1982 31.9502 41.931 30.7388 40.6072 30.7388C39.2833 30.7388 38.2099 31.9503 38.2099 33.4446V34.0745C37.2301 34.6637 36.5607 35.8443 36.5607 37.2054C36.5607 39.1554 37.9331 40.7359 39.6261 40.7359C40.8088 40.7359 41.8343 39.964 42.3454 38.8341V40.6666H43.1982V40.6652H43.8109ZM42.3454 38.5693C41.8891 39.7483 40.862 40.5709 39.6766 40.5709C38.1993 40.5709 37.4454 39.0642 37.4454 37.2054C37.4454 35.3468 38.1993 33.8401 39.6766 33.8401C40.8544 33.8401 41.8872 34.6649 42.3454 35.8464V38.5693ZM42.3454 34.7157V35.5769C41.8343 34.447 40.8087 33.675 39.6261 33.675C39.1801 33.675 38.7567 33.7856 38.3745 33.9829V33.4446C38.3745 31.8781 39.5755 30.8828 40.607 30.8828C41.6387 30.8828 42.3457 32.0299 42.3457 33.4446L42.3454 34.7157Z" fill="white"/>
<path d="M54.8317 35.5239C54.5458 35.1967 54.1563 34.8757 53.586 34.4951H53.5882C53.5581 34.4751 53.5298 34.4556 53.4987 34.4352C53.3748 34.349 53.2492 34.2629 53.1211 34.1766C52.9474 34.0597 52.7717 33.9466 52.6166 33.8469C52.3788 33.6939 52.1092 33.5204 51.8738 33.3508C51.5397 33.0882 51.256 32.8229 51.0307 32.5622C50.6174 32.084 50.298 31.6086 50.2148 31.1088C50.1923 30.9734 50.1815 30.7707 50.1815 30.6474C50.1815 29.4036 51.2116 28.2912 52.6854 28.2912C52.8576 28.2912 53.0241 28.3029 53.1858 28.3257C53.5231 28.3733 53.8452 28.5125 54.134 28.7148L55.7808 29.8688L55.5515 28.3284L53.2947 28.1266C53.0816 28.1097 52.8587 28.1014 52.6256 28.1014C50.8247 28.1014 49.4141 29.3522 49.4141 30.9489C49.4141 31.9074 49.758 32.7076 50.4969 33.4664C50.7828 33.7936 51.1722 34.1146 51.7425 34.4951H51.7404C51.7704 34.5152 51.7988 34.5347 51.8299 34.5551C51.9537 34.6412 52.0793 34.7274 52.2075 34.8137C52.3811 34.9306 52.5568 35.0436 52.7119 35.1434C52.9498 35.2964 53.2194 35.4699 53.4548 35.6395C53.7889 35.9021 54.0725 36.1674 54.2978 36.4281C54.7111 36.9063 55.0305 37.3817 55.1138 37.8815C55.1363 38.0169 55.1471 38.2196 55.1471 38.3429C55.1471 39.5867 54.1169 40.6991 52.6431 40.6991C52.5301 40.6991 52.4194 40.694 52.3109 40.6841C51.8915 40.6457 51.4887 40.4816 51.1313 40.2312L49.5476 39.1215L49.7769 40.6619L52.0337 40.8636C52.2468 40.8806 52.4697 40.8889 52.7028 40.8889C54.5037 40.8889 55.9144 39.6381 55.9144 38.0414C55.9145 37.0829 55.5705 36.2829 54.8317 35.5239Z" fill="white"/>
<path d="M64.0982 40.6652L63.4854 39.7157V33.4446C63.4854 31.9502 62.2182 30.7388 60.8944 30.7388C59.5706 30.7388 58.4971 31.9503 58.4971 33.4446V34.0745C57.5173 34.6637 56.848 35.8443 56.848 37.2054C56.848 39.1554 58.2203 40.7359 59.9133 40.7359C61.096 40.7359 62.1215 39.964 62.6327 38.8341V40.6666H63.4854V40.6652H64.0982ZM62.6327 38.5693C62.1764 39.7483 61.1492 40.5709 59.9638 40.5709C58.4866 40.5709 57.7327 39.0642 57.7327 37.2054C57.7327 35.3468 58.4866 33.8401 59.9638 33.8401C61.1417 33.8401 62.1744 34.6649 62.6327 35.8464V38.5693ZM62.6327 34.7157V35.5769C62.1215 34.447 61.0959 33.675 59.9133 33.675C59.4673 33.675 59.044 33.7856 58.6617 33.9829V33.4446C58.6617 31.8781 59.8627 30.8828 60.8943 30.8828C61.9259 30.8828 62.6329 32.0299 62.6329 33.4446L62.6327 34.7157Z" fill="white"/>
<path d="M72.0908 39.6939V33.5018C72.0908 31.9756 70.6557 30.7384 69.0822 30.7384C68.0073 30.7384 67.0716 31.3161 66.5865 32.1689V30.8368H65.7366L65.1096 30.8367L65.7366 31.808V39.6939L65.1096 40.6652H67.2122L66.5865 39.6957V32.4255C66.9965 31.506 67.9116 30.8651 68.9546 30.8651C70.2684 30.8651 71.2381 32.0456 71.2381 33.502V39.6958L70.6125 40.6652H72.7176L72.0908 39.6939Z" fill="white"/>
<path d="M76.1317 30.9677V30.8372H74.8709V29.0283L73.1527 30.9677H74.034L74.0329 38.6888C74.034 39.9875 74.6492 40.6649 75.9457 40.6649V40.5233C75.059 40.5233 74.8644 39.9008 74.8687 38.6998C74.8687 38.6998 74.8698 34.3218 74.8709 30.9677H76.1317Z" fill="white"/>
<path d="M81.0136 30.7386C78.5611 30.7386 76.5729 32.9828 76.5729 35.751C76.5729 38.5191 78.5612 40.7634 81.0136 40.7634C83.4662 40.7634 85.4542 38.5191 85.4542 35.751C85.4542 32.9828 83.4662 30.7386 81.0136 30.7386ZM82.1354 40.4766C80.0555 41.1057 78.1984 39.3996 77.5789 36.7898C76.9594 34.18 77.812 31.6544 79.8919 31.0253C81.9718 30.3962 83.8288 32.1023 84.4483 34.712C85.0678 37.322 84.2153 39.8476 82.1354 40.4766Z" fill="white"/>
<path d="M91.0848 36.5576C90.8433 36.301 90.514 36.0494 90.032 35.7511H90.0338C90.0084 35.7354 89.9844 35.7201 89.9581 35.7041C89.8536 35.6366 89.7473 35.569 89.6389 35.5013C89.4921 35.4097 89.3436 35.3211 89.2126 35.2428C89.0116 35.1229 88.7836 34.9869 88.5847 34.8539C88.3022 34.6479 88.0625 34.44 87.8721 34.2357C87.5227 33.8608 87.2528 33.4881 87.1824 33.0963C87.1635 32.9901 87.1543 32.8312 87.1543 32.7345C87.1543 31.7593 88.0251 30.8874 89.2709 30.8874C89.4163 30.8874 89.5572 30.8965 89.6939 30.9145C89.979 30.9518 90.2512 31.0608 90.4953 31.2195L91.8873 32.1243L91.6935 30.9167L89.786 30.7585C89.6058 30.7452 89.4175 30.7386 89.2204 30.7386C87.6982 30.7386 86.5058 31.7192 86.5058 32.9709C86.5058 33.7224 86.7965 34.3497 87.4211 34.9445C87.6626 35.2011 87.9919 35.4528 88.4739 35.7511H88.4721C88.4975 35.7667 88.5215 35.7821 88.5477 35.7981C88.6524 35.8656 88.7585 35.9332 88.8669 36.0008C89.0137 36.0925 89.1622 36.1811 89.2932 36.2593C89.4943 36.3793 89.7222 36.5152 89.9211 36.6483C90.2036 36.8542 90.4433 37.0622 90.6337 37.2665C90.9831 37.6413 91.253 38.0141 91.3234 38.4059C91.3423 38.512 91.3515 38.671 91.3515 38.7676C91.3515 39.7428 90.4807 40.6148 89.235 40.6148C89.1394 40.6148 89.0458 40.6109 88.9541 40.6031C88.5997 40.5729 88.2593 40.4444 87.9571 40.248L86.6185 39.378L86.8123 40.5856L88.7198 40.7438C88.9 40.7571 89.0883 40.7637 89.2854 40.7637C90.8076 40.7637 92 39.7831 92 38.5313C92.0002 37.7798 91.7094 37.1525 91.0848 36.5576Z" fill="white"/>
<path fill-rule="evenodd" clip-rule="evenodd" d="M53.8069 3.21455C46.7528 -3.38074 36.0655 0.701945 33.9214 10.6411H27.9151C26.8185 10.6411 26.8185 12.5069 27.9151 12.5069H34.5761C35.018 12.5069 35.3617 12.1375 35.4109 11.6756C35.8854 8.86755 37.2111 6.41058 39.0769 4.65556C45.3452 -1.21923 54.9525 2.73413 56.4254 11.731C56.6219 12.9502 58.2584 12.6177 58.0621 11.3985C57.5219 8.12851 55.9836 5.26504 53.8069 3.21455Z" fill="white"/>
<path fill-rule="evenodd" clip-rule="evenodd" d="M50.5989 18.9912C54.707 14.3727 51.7774 6.44745 46 6.44745C42.3993 6.44745 39.4862 9.73594 39.4862 13.8001C39.4862 20.3214 46.5073 23.6282 50.5989 18.9912Z" fill="white"/>
<path fill-rule="evenodd" clip-rule="evenodd" d="M58.0786 16.9775C55.9345 26.8982 45.2472 30.9808 38.1931 24.3856C36.0165 22.3351 34.4781 19.4716 33.9379 16.2016C33.7416 14.9824 35.3781 14.6499 35.5746 15.8691C37.0475 24.866 46.6548 28.8193 52.9231 22.9448C54.7889 21.1898 56.1146 18.7326 56.5891 15.9245C56.6383 15.4628 56.982 15.0932 57.4239 15.0932H64.0849C65.1815 15.0932 65.1815 16.9775 64.0849 16.9775H58.0786Z" fill="white"/>
</svg>
