<svg width="87" height="87" viewBox="0 0 87 87" fill="none" xmlns="http://www.w3.org/2000/svg">
<path d="M39.6949 7.35593H46.8813V14.5424H48.678C50.1074 14.5424 51.4784 15.1102 52.4891 16.121C53.4999 17.1318 54.0678 18.5027 54.0678 19.9322V32.5084L52.4868 34.0895L58.3797 44.2942C62.3681 40.3776 64.8475 34.9518 64.8475 28.9152H72.0339C72.0339 37.6108 68.1892 45.4081 62.0807 50.6901L73.3634 70.2372L73.8305 78.2142L67.1112 73.8304L56.08 54.6786C52.2712 56.583 47.8875 57.661 43.2881 57.661C38.6888 57.661 34.3051 56.583 30.4962 54.6786L19.4651 73.8304L12.7457 78.2142L13.2128 70.2372L34.0895 34.0895L32.5085 32.5084V19.9322C32.5085 18.5027 33.0763 17.1318 34.0871 16.121C35.0979 15.1102 36.4688 14.5424 37.8983 14.5424H39.6949V7.35593ZM34.0895 48.4264C36.8922 49.7559 40.0183 50.4745 43.2881 50.4745C46.558 50.4745 49.6841 49.7559 52.4868 48.4264L47.2407 39.3356H47.2047C44.9769 41.4915 41.5993 41.4915 39.3715 39.3356H39.3356L34.0895 48.4264ZM43.2881 21.7288C42.3351 21.7288 41.4212 22.1074 40.7473 22.7812C40.0735 23.4551 39.6949 24.369 39.6949 25.322C39.6949 26.275 40.0735 27.1889 40.7473 27.8628C41.4212 28.5367 42.3351 28.9152 43.2881 28.9152C44.2411 28.9152 45.1551 28.5367 45.8289 27.8628C46.5028 27.1889 46.8813 26.275 46.8813 25.322C46.8813 24.369 46.5028 23.4551 45.8289 22.7812C45.1551 22.1074 44.2411 21.7288 43.2881 21.7288Z" fill="black"/>
</svg>
