<svg width="40" height="40" viewBox="0 0 40 40" fill="none" xmlns="http://www.w3.org/2000/svg">
<path d="M20 3.33333C17.8113 3.33333 15.644 3.76443 13.6219 4.60201C11.5999 5.43959 9.76253 6.66724 8.21489 8.21489C5.08928 11.3405 3.33334 15.5797 3.33334 20C3.33334 24.4203 5.08928 28.6595 8.21489 31.7851C9.76253 33.3328 11.5999 34.5604 13.6219 35.398C15.644 36.2356 17.8113 36.6667 20 36.6667C24.4203 36.6667 28.6595 34.9107 31.7851 31.7851C34.9107 28.6595 36.6667 24.4203 36.6667 20C36.6667 18.0667 36.3167 16.15 35.65 14.35L32.9833 17.0167C33.2167 18 33.3333 19 33.3333 20C33.3333 23.5362 31.9286 26.9276 29.4281 29.4281C26.9276 31.9286 23.5362 33.3333 20 33.3333C16.4638 33.3333 13.0724 31.9286 10.5719 29.4281C8.07143 26.9276 6.66667 23.5362 6.66667 20C6.66667 16.4638 8.07143 13.0724 10.5719 10.5719C13.0724 8.07143 16.4638 6.66667 20 6.66667C21 6.66667 22 6.78333 22.9833 7.01667L25.6667 4.33333C23.85 3.68333 21.9333 3.33333 20 3.33333ZM31.6667 3.33333L25 10V12.5L20.75 16.75C20.5 16.6667 20.25 16.6667 20 16.6667C19.1159 16.6667 18.2681 17.0179 17.643 17.643C17.0179 18.2681 16.6667 19.1159 16.6667 20C16.6667 20.8841 17.0179 21.7319 17.643 22.357C18.2681 22.9821 19.1159 23.3333 20 23.3333C20.8841 23.3333 21.7319 22.9821 22.357 22.357C22.9821 21.7319 23.3333 20.8841 23.3333 20C23.3333 19.75 23.3333 19.5 23.25 19.25L27.5 15H30L36.6667 8.33333H31.6667V3.33333ZM20 10C17.3478 10 14.8043 11.0536 12.9289 12.9289C11.0536 14.8043 10 17.3478 10 20C10 22.6522 11.0536 25.1957 12.9289 27.0711C14.8043 28.9464 17.3478 30 20 30C22.6522 30 25.1957 28.9464 27.0711 27.0711C28.9464 25.1957 30 22.6522 30 20H26.6667C26.6667 21.7681 25.9643 23.4638 24.714 24.714C23.4638 25.9643 21.7681 26.6667 20 26.6667C18.2319 26.6667 16.5362 25.9643 15.286 24.714C14.0357 23.4638 13.3333 21.7681 13.3333 20C13.3333 18.2319 14.0357 16.5362 15.286 15.286C16.5362 14.0357 18.2319 13.3333 20 13.3333V10Z" fill="black"/>
</svg>
