<svg width="87" height="87" viewBox="0 0 87 87" fill="none" xmlns="http://www.w3.org/2000/svg">
<path d="M66.2353 43.2881C74.539 31.6293 78.7734 19.5796 72.885 13.6912C66.9966 7.80284 54.947 12.0372 43.2881 20.3409C31.6293 12.0372 19.5796 7.80284 13.6912 13.6912C7.80283 19.5796 12.0372 31.6293 20.3409 43.2881C12.0372 54.947 7.80283 66.9967 13.6912 72.885C15.5878 74.7816 18.121 75.6271 21.0719 75.6271C27.2972 75.6271 35.3819 71.8643 43.305 66.2353C51.1943 71.8643 59.2791 75.6271 65.5212 75.6271C68.4721 75.6271 71.0087 74.7782 72.9019 72.885C78.7734 66.9967 74.539 54.947 66.2353 43.2881ZM69.0751 17.5012C71.6487 20.0748 69.9105 28.4156 62.8364 38.8179C60.5984 36.0475 58.2157 33.3972 55.6982 30.8781C53.1788 28.364 50.5285 25.9847 47.7583 23.75C58.1607 16.6758 66.5015 14.9242 69.0751 17.5012ZM59.5553 43.2881C57.1716 46.3036 54.6114 49.1754 51.8883 51.8883C49.1754 54.6114 46.3036 57.1716 43.2881 59.5553C40.2726 57.1716 37.4009 54.6114 34.688 51.8883C31.9648 49.1754 29.4047 46.3036 27.0209 43.2881C31.8034 37.2615 37.2615 31.8034 43.2881 27.021C46.3036 29.4047 49.1754 31.9649 51.8883 34.688C54.6114 37.4009 57.1716 40.2726 59.5553 43.2881ZM17.5012 17.5012C18.2423 16.7567 19.4651 16.3727 21.0787 16.3727C25.0604 16.3727 31.417 18.697 38.8146 23.75C36.047 25.9865 33.3979 28.3658 30.878 30.8781C28.364 33.3975 25.9847 36.0478 23.75 38.8179C16.6758 28.4156 14.9275 20.0748 17.5012 17.5012ZM17.5012 69.0751C14.9275 66.5015 16.6758 58.1607 23.75 47.7583C25.988 50.5288 28.3707 53.1791 30.8882 55.6982C33.4059 58.2103 36.0528 60.5895 38.8179 62.8263C28.4156 69.9004 20.0748 71.6521 17.5012 69.0751ZM69.0751 69.0751C66.5015 71.6521 58.1607 69.9105 47.7583 62.8364C50.5272 60.5966 53.1774 58.214 55.6982 55.6982C58.2122 53.1788 60.5916 50.5285 62.8263 47.7583C69.9004 58.1607 71.6487 66.5015 69.0751 69.0751ZM47.3305 43.2881C47.3305 44.0876 47.0934 44.8692 46.6492 45.534C46.2051 46.1987 45.5737 46.7168 44.8351 47.0228C44.0964 47.3288 43.2836 47.4088 42.4995 47.2528C41.7154 47.0969 40.9951 46.7119 40.4297 46.1465C39.8644 45.5812 39.4794 44.8609 39.3234 44.0768C39.1675 43.2926 39.2475 42.4798 39.5535 41.7412C39.8594 41.0025 40.3775 40.3712 41.0423 39.927C41.7071 39.4828 42.4886 39.2458 43.2881 39.2458C44.3602 39.2458 45.3884 39.6717 46.1465 40.4297C46.9046 41.1878 47.3305 42.216 47.3305 43.2881Z" fill="black"/>
</svg>
